<?xml version="1.0" encoding="UTF-8"?>
<svg version="1.1" xmlns="http://www.w3.org/2000/svg" width="439" height="453">
<path d="M0 0 C18.91233698 0.41113776 37.90084364 2.17847178 52.4375 15.6875 C62.32191698 26.23828217 64.62937455 39.1587978 64.3046875 53.09375 C63.41337141 71.65669661 56.45391149 89.63941683 48 106 C48.89460938 105.94199219 49.78921875 105.88398438 50.7109375 105.82421875 C58.95026641 105.5167811 65.27273926 105.93221535 72 111 C77.93587967 116.90781405 79.2145771 124.10286357 79.28216553 132.19166565 C79.27968811 133.09835495 79.27721069 134.00504425 79.2746582 134.93920898 C79.2823246 136.39913269 79.2823246 136.39913269 79.29014587 137.8885498 C79.30399367 141.0911278 79.30308881 144.29348945 79.30078125 147.49609375 C79.3046706 149.73136983 79.30900577 151.96664517 79.31376648 154.20191956 C79.32121819 158.88146361 79.32094483 163.5609322 79.31567383 168.24047852 C79.30987837 174.22688578 79.32681739 180.21298373 79.3500185 186.19933987 C79.36477391 190.81396785 79.3656251 195.42852163 79.36250877 200.04316902 C79.363021 202.24989497 79.36824013 204.45662518 79.37832069 206.66332817 C79.39070363 209.75288693 79.38388216 212.84184679 79.37231445 215.93139648 C79.37995819 216.83606155 79.38760193 217.74072662 79.39547729 218.67280579 C79.3306902 226.53032277 77.65218515 233.18632385 72 239 C66.58170884 242.98078534 63.08325825 244.12584706 56.41723633 244.11352539 C55.75355545 244.11367142 55.08987457 244.11381744 54.40608215 244.1139679 C52.21469848 244.11327182 50.02340005 244.1054937 47.83203125 244.09765625 C46.31174262 244.09579099 44.79145339 244.09436759 43.27116394 244.09336853 C39.27135557 244.08955188 35.27158356 244.07972885 31.27178955 244.06866455 C27.18966158 244.05843213 23.10752773 244.05386698 19.02539062 244.04882812 C11.01691041 244.03810583 3.00845973 244.02103961 -5 244 C-4.98889694 244.86728729 -4.97779388 245.73457458 -4.96635437 246.62814331 C-4.86580476 254.83654979 -4.7898595 263.04474683 -4.74093914 271.25362968 C-4.71494218 275.47306657 -4.67972807 279.69199086 -4.62280273 283.91113281 C-4.56812561 287.98957417 -4.53850516 292.06752524 -4.52561378 296.14630508 C-4.51643739 297.69554478 -4.49851897 299.24476029 -4.47134972 300.79378891 C-4.3072815 310.54350262 -4.79234957 318.77036177 -11.33695984 326.59933472 C-17.81137119 332.73067673 -26.60172235 333.44597936 -35.05859375 333.38818359 C-36.02080841 333.39344055 -36.98302307 333.39869751 -37.97439575 333.40411377 C-41.12893302 333.41722845 -44.28295833 333.4086059 -47.4375 333.3984375 C-49.64510189 333.40046068 -51.85270312 333.40337415 -54.06030273 333.40713501 C-58.67666008 333.41154682 -63.29284273 333.40516406 -67.90917969 333.39111328 C-73.81025602 333.37402228 -79.71092292 333.38386957 -85.61198425 333.40183067 C-90.16747085 333.41269934 -94.72286125 333.40920801 -99.27835083 333.4014473 C-101.45354257 333.39945382 -103.6287432 333.40187444 -105.80392456 333.40888596 C-108.84998532 333.41655118 -111.89539375 333.40482516 -114.94140625 333.38818359 C-115.82998322 333.39425629 -116.71856018 333.40032898 -117.63406372 333.40658569 C-124.34021556 333.3391121 -130.67886329 332.27413429 -136.3046875 328.421875 C-136.82289063 327.87015625 -137.34109375 327.3184375 -137.875 326.75 C-138.40867187 326.20859375 -138.94234375 325.6671875 -139.4921875 325.109375 C-143.27696126 319.81461378 -144.37598646 315.20161515 -144.29296875 308.75390625 C-144.28872391 308.09792953 -144.28447906 307.44195282 -144.28010559 306.76609802 C-144.26348779 304.69779089 -144.22587238 302.63050599 -144.1875 300.5625 C-144.17243111 299.14910275 -144.15874659 297.73569002 -144.14648438 296.32226562 C-144.11364104 292.88118565 -144.06198015 289.44069281 -144 286 C-144.62753174 286.27150879 -145.25506348 286.54301758 -145.90161133 286.82275391 C-174.87403857 299.29417126 -209.63761626 313.56088283 -241.25 301.9375 C-252.98473293 296.5310851 -259.55877826 288.00295205 -264 276 C-267.22163915 263.41682644 -266.06650312 250.69618866 -264.625 237.9375 C-264.49867188 236.71611328 -264.37234375 235.49472656 -264.2421875 234.23632812 C-264.11328125 233.07423828 -263.984375 231.91214844 -263.8515625 230.71484375 C-263.73635254 229.66417725 -263.62114258 228.61351074 -263.50244141 227.53100586 C-263 225 -263 225 -261 223 C-260.84144531 224.01578125 -260.68289063 225.0315625 -260.51953125 226.078125 C-258.14972823 240.40879221 -254.48948434 252.52963957 -242.625 261.8125 C-229.70035368 270.4192712 -212.06383275 269.16833954 -197.46582031 266.40356445 C-181.05753973 263.05504884 -166.16558768 257.03883632 -151 250 C-150.12907715 249.59620117 -149.2581543 249.19240234 -148.36083984 248.77636719 C-129.77535357 240.05424678 -112.45782188 229.24528027 -96 217 C-95.02417969 216.28714844 -94.04835937 215.57429687 -93.04296875 214.83984375 C-85.13856468 209.00941986 -77.50918096 202.85384811 -69.93896484 196.59814453 C-68.19226336 195.15846839 -66.43501546 193.73288763 -64.67578125 192.30859375 C-56.69379765 185.74761313 -49.36430932 178.54791502 -42.0625 171.25 C-41.5656369 170.75413391 -41.0687738 170.25826782 -40.55685425 169.74737549 C-34.82325699 164.01247339 -29.23037763 158.20174624 -24 152 C-23.26394531 151.13375 -22.52789062 150.2675 -21.76953125 149.375 C2.66733403 119.71908365 33.03909243 80.17095574 30.8125 39.58203125 C29.68905911 28.85083027 26.14063689 18.92049997 17.98828125 11.52734375 C12.51572608 7.32347524 6.71807031 3.76791324 0 2 C0 1.34 0 0.68 0 0 Z " fill="#183063" transform="translate(299,48)"/>
<path d="M0 0 C0.85507141 -0.00571014 1.71014282 -0.01142029 2.59112549 -0.01730347 C3.52109344 -0.01842133 4.4510614 -0.01953918 5.40921021 -0.02069092 C6.88792603 -0.02813828 6.88792603 -0.02813828 8.39651489 -0.03573608 C11.65742694 -0.05034026 14.91829036 -0.05715637 18.17922974 -0.06268311 C20.44600425 -0.06843542 22.71277874 -0.07419315 24.97955322 -0.07995605 C29.73247504 -0.09046068 34.48537997 -0.09630707 39.23831177 -0.09979248 C45.32699128 -0.10527997 51.41544749 -0.1293159 57.50405693 -0.15776443 C62.18636731 -0.17639087 66.86862387 -0.1815964 71.55096817 -0.18312836 C73.79563749 -0.18615474 76.04030586 -0.19418275 78.28493881 -0.20731354 C81.42549384 -0.22437586 84.56550258 -0.22249328 87.70608521 -0.21600342 C88.6320047 -0.2252182 89.55792419 -0.23443298 90.51190186 -0.243927 C96.34106442 -0.20620993 100.89205851 0.46078516 105.29641724 4.68341064 C105.67282349 5.22610596 106.04922974 5.76880127 106.43704224 6.32794189 C106.82376099 6.85774658 107.21047974 7.38755127 107.60891724 7.93341064 C111.29444688 15.47806373 111.00820511 23.45079436 111.02297974 31.65997314 C111.03296494 33.6015052 111.03296494 33.6015052 111.04315186 35.58226013 C111.05506966 38.3130324 111.05883841 41.0436787 111.05764771 43.7744751 C111.05744484 47.24412496 111.08473647 50.71295277 111.11919212 54.18240833 C111.14700695 57.5291061 111.14561533 60.8756617 111.14797974 64.22247314 C111.16235077 65.45302933 111.1767218 66.68358551 111.19152832 67.95143127 C111.13146087 79.4176783 108.05976767 88.17649083 101.24954224 97.32794189 C100.73021118 98.04353271 100.21088013 98.75912354 99.67581177 99.49639893 C91.66692851 110.41194415 83.07838041 120.84277268 73.87454224 130.76934814 C71.96883006 132.83500402 70.13272214 134.93776768 68.31204224 137.07794189 C61.71010053 144.66315151 54.46177929 151.79082117 46.80422974 158.30450439 C44.61566222 160.2023397 42.4903166 162.16126904 40.36868286 164.13336182 C34.67436678 169.41775144 28.85959901 174.41470098 22.68704224 179.14044189 C21.99078735 179.67685303 21.29453247 180.21326416 20.57717896 180.76593018 C9.2778177 189.45002286 -2.17600032 197.6688883 -14.31295776 205.14044189 C-14.98858765 205.5613208 -15.66421753 205.98219971 -16.36032104 206.41583252 C-48.34181119 226.24907861 -48.34181119 226.24907861 -63.85983276 226.34356689 C-64.95488129 226.352117 -64.95488129 226.352117 -66.072052 226.36083984 C-67.61522991 226.37026779 -69.15842776 226.37681505 -70.70162964 226.38067627 C-73.04118818 226.39035186 -75.37985625 226.42138235 -77.71920776 226.45294189 C-79.22441093 226.45947597 -80.72962032 226.46472485 -82.23483276 226.46856689 C-82.92470276 226.4809137 -83.61457275 226.4932605 -84.3253479 226.50598145 C-90.17547981 226.47966689 -95.75046837 225.27255179 -100.33639526 221.45684814 C-100.78241089 220.87805908 -101.22842651 220.29927002 -101.68795776 219.70294189 C-102.14944214 219.12673096 -102.61092651 218.55052002 -103.08639526 217.95684814 C-105.41185038 214.51310091 -106.56190959 211.91724891 -106.5803833 207.72705078 C-106.58891327 206.84962723 -106.59744324 205.97220367 -106.60623169 205.06819153 C-106.60532532 204.11331345 -106.60441895 203.15843536 -106.60348511 202.17462158 C-106.61020233 201.16276291 -106.61691956 200.15090424 -106.62384033 199.10838318 C-106.64285438 195.75964459 -106.64674653 192.41110613 -106.64889526 189.06231689 C-106.65532175 186.73307208 -106.66204999 184.40382807 -106.66906738 182.07458496 C-106.68104934 177.1888034 -106.68474735 172.30309258 -106.68356323 167.41729736 C-106.68336021 161.16505859 -106.71064169 154.9132752 -106.74510765 148.66114426 C-106.76737827 143.84834726 -106.77140068 139.03565972 -106.77034378 134.22281647 C-106.77270028 131.91839278 -106.78152651 129.61396609 -106.79700851 127.3095932 C-106.8166672 124.08068779 -106.81082981 120.8527625 -106.79879761 117.62384033 C-106.81003662 116.67705917 -106.82127563 115.73027802 -106.83285522 114.75480652 C-106.76710112 107.78901585 -105.16677117 102.52643496 -100.63717651 97.15216064 C-100.09705933 96.71516846 -99.55694214 96.27817627 -99.00045776 95.82794189 C-98.46807495 95.37805908 -97.93569214 94.92817627 -97.38717651 94.46466064 C-89.56389467 89.47013608 -82.50744598 89.7437601 -73.41061401 89.84747314 C-71.96330711 89.85307589 -70.51599447 89.85734278 -69.06867981 89.8603363 C-65.27921544 89.8717318 -61.49010192 89.9011524 -57.70077515 89.93444824 C-53.82610824 89.96526414 -49.95138405 89.97886613 -46.07662964 89.99395752 C-38.48857993 90.02602802 -30.90081821 90.0771591 -23.31295776 90.14044189 C-23.32628143 88.83618004 -23.32628143 88.83618004 -23.33987427 87.50556946 C-23.42026458 79.2821031 -23.48104587 71.05877012 -23.52020645 62.83500004 C-23.54101672 58.60778502 -23.56921298 54.38089668 -23.61471558 50.15386963 C-23.65840942 46.06896728 -23.68214413 41.98437771 -23.69246674 37.89925957 C-23.69981615 36.34643066 -23.71416731 34.79361745 -23.73587799 33.24092293 C-23.87103811 23.1673115 -23.00422337 15.86826784 -17.50045776 7.32794189 C-12.57331053 2.40079466 -6.93640124 0.02785658 0 0 Z " fill="#1CC2B8" transform="translate(177.31295776367188,63.85955810546875)"/>
<path d="M0 0 C33.66 0 67.32 0 102 0 C102.495 1.485 102.495 1.485 103 3 C68.35 3 33.7 3 -2 3 C-1.34 2.67 -0.68 2.34 0 2 C0 1.34 0 0.68 0 0 Z " fill="#39CCBF" transform="translate(173,64)"/>
<path d="M0 0 C0 0.66 0 1.32 0 2 C35.64 2.33 71.28 2.66 108 3 C108 3.33 108 3.66 108 4 C103.14659966 5.25167051 98.37093659 5.15497325 93.39550781 5.16113281 C91.95306198 5.16858017 91.95306198 5.16858017 90.48147583 5.17617798 C87.30535156 5.19076288 84.12927724 5.1975957 80.953125 5.203125 C78.73980712 5.20887971 76.52648925 5.2146374 74.31317139 5.22039795 C69.67297128 5.23089766 65.03278844 5.23674699 60.39257812 5.24023438 C54.46003957 5.24571525 48.52773095 5.26973914 42.59526443 5.29820633 C38.02263735 5.31687243 33.45006521 5.32204044 28.87740326 5.32357025 C26.69103489 5.3265886 24.5046673 5.33458936 22.31833649 5.34775543 C19.25273879 5.36489795 16.1876971 5.3629155 13.12207031 5.35644531 C12.22720917 5.3656601 11.33234802 5.37487488 10.41036987 5.3843689 C4.60433479 5.34617357 -0.72984898 4.58502558 -6 2 C-6.33 1.34 -6.66 0.68 -7 0 C-4.3333581 -1.33332095 -2.83319697 -0.67102033 0 0 Z " fill="#959FBB" transform="translate(171,376)"/>
<path d="M0 0 C0.33 0 0.66 0 1 0 C1.66 5.28 2.32 10.56 3 16 C2.01 15.01 1.02 14.02 0 13 C-0.66 14.32 -1.32 15.64 -2 17 C-2.21824777 10.9981863 -1.5056904 5.80766296 0 0 Z " fill="#5B6D91" transform="translate(37,271)"/>
<path d="M0 0 C2.625 0.375 2.625 0.375 5 1 C5 1.66 5 2.32 5 3 C12.26 3.33 19.52 3.66 27 4 C27 4.33 27 4.66 27 5 C23.29181703 5.08756305 19.58390237 5.14058015 15.875 5.1875 C14.30492187 5.22520508 14.30492187 5.22520508 12.703125 5.26367188 C6.94528536 5.31833491 2.86485368 5.20676341 -2 2 C-1.34 1.34 -0.68 0.68 0 0 Z " fill="#415383" transform="translate(166,375)"/>
<path d="M0 0 C0 0.99 0 1.98 0 3 C-1.26691507 3.67408308 -2.53870749 4.33900497 -3.8125 5 C-4.52019531 5.37125 -5.22789062 5.7425 -5.95703125 6.125 C-8 7 -8 7 -11 7 C-11 7.66 -11 8.32 -11 9 C-12.32 8.67 -13.64 8.34 -15 8 C-12.8782637 6.66121428 -10.75294812 5.32884524 -8.625 4 C-8.02171875 3.6184375 -7.4184375 3.236875 -6.796875 2.84375 C-2.2265625 0 -2.2265625 0 0 0 Z " fill="#465A84" transform="translate(186,278)"/>
<path d="M0 0 C-2 2 -2 2 -4.875 2.8125 C-8.55169107 4.20964261 -9.70859668 5.89023835 -12 9 C-12.66 9 -13.32 9 -14 9 C-11.83249022 3.14772361 -6.25484031 -1.87645209 0 0 Z " fill="#48CFC8" transform="translate(88,157)"/>
<path d="M0 0 C1.44096586 0.42594588 2.87768712 0.86626633 4.3125 1.3125 C5.11300781 1.55613281 5.91351563 1.79976562 6.73828125 2.05078125 C9.09964573 3.04182023 10.33879993 4.08074943 12 6 C10.68 6 9.36 6 8 6 C8 5.34 8 4.68 8 4 C5.69 3.67 3.38 3.34 1 3 C0.67 2.01 0.34 1.02 0 0 Z " fill="#53668C" transform="translate(332,53)"/>
<path d="M0 0 C0.33 0.99 0.66 1.98 1 3 C-0.40445835 5.2636564 -2.1967913 7.0208685 -4 9 C-4.99 8.67 -5.98 8.34 -7 8 C-4.69 5.36 -2.38 2.72 0 0 Z " fill="#40537D" transform="translate(269,206)"/>
<path d="M0 0 C0.66 0.33 1.32 0.66 2 1 C0.12050295 4.57104439 -1.17053157 6.54744301 -5 8 C-3.8141763 4.62496331 -2.72426311 2.35277269 0 0 Z " fill="#55D2CB" transform="translate(162,69)"/>
<path d="M0 0 C0.99 0.33 1.98 0.66 3 1 C0.7448078 3.2551922 -1.0047587 3.97723468 -4 5 C-4.99 5 -5.98 5 -7 5 C-6.67 4.01 -6.34 3.02 -6 2 C-5.01 2.33 -4.02 2.66 -3 3 C-2.67 2.34 -2.34 1.68 -2 1 C-1.34 1.33 -0.68 1.66 0 2 C0 1.34 0 0.68 0 0 Z " fill="#485B85" transform="translate(138,338)"/>
<path d="M0 0 C0.33 1.32 0.66 2.64 1 4 C-1.35171131 3.40138258 -3.6859378 2.73075648 -6 2 C-6.33 1.34 -6.66 0.68 -7 0 C-4.3333581 -1.33332095 -2.83319697 -0.67102033 0 0 Z " fill="#5D6D92" transform="translate(171,376)"/>
</svg>
